<?xml version="1.0" standalone="no"?>
<!DOCTYPE svg PUBLIC "-//W3C//DTD SVG 1.1//EN" "http://www.w3.org/Graphics/SVG/1.1/DTD/svg11.dtd" >
<svg xmlns="http://www.w3.org/2000/svg">
<metadata></metadata>
<defs>
<font id="dejavu_serifbook" horiz-adv-x="1224" >
<font-face units-per-em="2048" ascent="1556" descent="-492" />
<missing-glyph horiz-adv-x="611" />
<glyph horiz-adv-x="2048" />
<glyph horiz-adv-x="2048" />
<glyph unicode="&#xd;" horiz-adv-x="641" />
<glyph unicode=" "  horiz-adv-x="611" />
<glyph unicode="&#x09;" horiz-adv-x="611" />
<glyph unicode="&#xa0;" horiz-adv-x="611" />
<glyph unicode="!" horiz-adv-x="773" d="M262 98q0 52 36 89t89 37q52 0 88.5 -37t36.5 -89t-36.5 -88.5t-88.5 -36.5q-53 0 -89 36t-36 89zM266 1403h243l-64 -771v-237h-116v237z" />
<glyph unicode="&#x22;" horiz-adv-x="885" d="M189 882v521h149v-521h-149zM547 882v521h150v-521h-150z" />
<glyph unicode="#" horiz-adv-x="1613" d="M149 389v144h327l77 314h-297v145h333l98 390h160l-96 -390h265l97 390h162l-99 -390h289v-145h-326l-77 -314h295v-144h-331l-96 -389h-162l99 389h-266l-98 -389h-160l96 389h-290zM635 533h268l76 314h-265z" />
<glyph unicode="$" d="M164 867q0 150 103 241t288 103v252h94v-252q95 -8 182.5 -31t171.5 -61v-247h-102q-12 109 -76.5 172t-175.5 72v-425q231 -63 323.5 -144.5t92.5 -217.5q0 -156 -109 -250t-307 -108v-254h-94v254q-91 2 -187.5 26t-202.5 71v259h102q4 -129 75.5 -194.5t212.5 -68.5 v456q-217 60 -304 138.5t-87 208.5zM351 928q0 -75 49 -125t155 -81v394q-97 -7 -150.5 -56.5t-53.5 -131.5zM649 64q106 9 162 61t56 141q0 81 -55.5 137.5t-162.5 85.5v-425z" />
<glyph unicode="%" horiz-adv-x="1829" d="M106 1047q0 175 87.5 278.5t236.5 103.5q148 0 236.5 -103t88.5 -279q0 -177 -88 -279.5t-237 -102.5q-150 0 -237 102.5t-87 279.5zM256 1045q0 -138 47.5 -217t127.5 -79t126.5 78.5t46.5 217.5t-46.5 217.5t-126.5 78.5q-82 0 -128.5 -78t-46.5 -218zM404 -27 l878 1456h143l-878 -1456h-143zM1074 354q0 177 88 280t238 103q148 0 235.5 -103.5t87.5 -279.5q0 -175 -88 -278t-235 -103q-151 0 -238.5 103t-87.5 278zM1225 354q0 -138 47 -216.5t128 -78.5q80 0 126.5 78.5t46.5 216.5q0 140 -46.5 219t-126.5 79q-82 0 -128.5 -79 t-46.5 -219z" />
<glyph unicode="&#x26;" horiz-adv-x="1713" d="M138 433q0 125 72 234t218 203q-48 58 -70.5 115t-22.5 119q0 149 107.5 237t292.5 88q63 0 147 -16t192 -48v-243h-106q-13 101 -73 153.5t-164 52.5q-97 0 -157 -53t-60 -138q0 -57 32 -114t134 -163l485 -511q65 75 102 162t46 186h-169v100h445v-100h-162 q-16 -123 -62.5 -229t-124.5 -196l162 -172h220v-100h-376l-129 136q-99 -82 -211 -122.5t-241 -40.5q-243 0 -385 124t-142 336zM329 454q0 -156 108 -262t270 -106q96 0 181 33.5t152 97.5l-547 576q-82 -73 -123 -158t-41 -181z" />
<glyph unicode="'" horiz-adv-x="529" d="M189 882v521h149v-521h-149z" />
<glyph unicode="(" horiz-adv-x="751" d="M152 581q0 335 116.5 557t345.5 325v-92q-145 -100 -208 -281t-63 -509q0 -327 63 -508t208 -281v-92q-229 103 -345.5 325t-116.5 556z" />
<glyph unicode=")" horiz-adv-x="751" d="M136 -208q145 100 208.5 281t63.5 508q0 328 -63.5 509t-208.5 281v92q230 -103 346.5 -325t116.5 -557q0 -334 -116.5 -556t-346.5 -325v92z" />
<glyph unicode="*" horiz-adv-x="962" d="M31 818l368 172l-368 173l71 112l328 -204l-13 358h128l-12 -358l327 204l72 -112l-368 -171l368 -174l-72 -111l-327 204l12 -358h-128l13 358l-328 -204z" />
<glyph unicode="+" horiz-adv-x="1613" d="M204 527v153h527v527h151v-527h527v-153h-527v-527h-151v527h-527z" />
<glyph unicode="," horiz-adv-x="611" d="M70 -187q88 65 129.5 153t41.5 213v34h185q-8 -160 -76 -275.5t-205 -199.5z" />
<glyph unicode="-" horiz-adv-x="650" d="M85 443v146h481v-146h-481z" />
<glyph unicode="." horiz-adv-x="611" d="M181 98q0 52 36 89t89 37q52 0 88.5 -37t36.5 -89t-36.5 -88.5t-88.5 -36.5q-53 0 -89 36t-36 89z" />
<glyph unicode="/" horiz-adv-x="648" d="M0 -179l498 1582h151l-499 -1582h-150z" />
<glyph unicode="0" d="M127 700q0 345 128.5 537t356.5 192q229 0 357 -192t128 -537q0 -344 -128 -535.5t-357 -191.5q-228 0 -356.5 191.5t-128.5 535.5zM325 700q0 -318 71.5 -476t215.5 -158t215.5 158t71.5 476q0 320 -71.5 478t-215.5 158t-215.5 -158t-71.5 -478z" />
<glyph unicode="1" d="M235 1084v123l342 222h130v-1329h244v-100h-677v100h244v1167z" />
<glyph unicode="2" d="M131 0v102l425 425q141 141 201.5 259t60.5 248q0 142 -74 222t-204 80q-134 0 -207.5 -67t-86.5 -200h-105v250q101 53 203 81.5t199 28.5q219 0 346 -106.5t127 -288.5q0 -206 -288 -493q-22 -21 -33 -32l-355 -355h586v173h110v-327h-905z" />
<glyph unicode="3" d="M147 68v272h105q9 -135 91 -204.5t230 -69.5q144 0 227.5 83t83.5 228q0 165 -85.5 250.5t-251.5 85.5h-89v95h47q164 0 246.5 68.5t82.5 205.5q0 123 -68 188.5t-194 65.5q-127 0 -197 -60.5t-83 -178.5h-105v247q110 42 211 63.5t190 21.5q205 0 321 -89t116 -247 q0 -127 -80 -212t-227 -115q173 -24 268.5 -125t95.5 -262q0 -197 -132 -301.5t-380 -104.5q-110 0 -215 23.5t-208 71.5z" />
<glyph unicode="4" d="M59 375v103l615 951h186v-953h268v-101h-268v-275h226v-100h-640v100h226v275h-613zM193 476h479v746z" />
<glyph unicode="5" d="M164 68v272h106q8 -133 84.5 -203.5t215.5 -70.5q148 0 228 97.5t80 281.5q0 182 -79.5 279.5t-228.5 97.5q-85 0 -149.5 -30.5t-114.5 -93.5h-80v705h742v-154h-643v-402q49 34 114.5 51t146.5 17q227 0 358.5 -126t131.5 -344q0 -223 -133 -347.5t-373 -124.5 q-97 0 -198.5 23.5t-207.5 71.5z" />
<glyph unicode="6" d="M129 656q0 369 151 571t427 202q74 0 156 -14t167 -43v-231h-106q-11 95 -72 145t-165 50q-182 0 -271.5 -138.5t-92.5 -424.5q64 70 145 105t182 35q210 0 332 -126t122 -344q0 -214 -131.5 -342t-350.5 -128q-238 0 -365.5 177t-127.5 506zM354 454q0 -187 71.5 -287.5 t204.5 -100.5q132 0 203.5 97t71.5 280q0 182 -71.5 279.5t-203.5 97.5q-135 0 -205.5 -94t-70.5 -272z" />
<glyph unicode="7" d="M162 1076v327h924v-95l-549 -1308h-140l523 1249h-648v-173h-110z" />
<glyph unicode="8" d="M129 384q0 149 89 245.5t250 117.5q-142 26 -217.5 108t-75.5 210q0 169 116.5 266.5t320.5 97.5t320.5 -97.5t116.5 -266.5q0 -128 -75.5 -210t-216.5 -108q159 -21 248.5 -117.5t89.5 -245.5q0 -198 -125 -304.5t-358 -106.5q-232 0 -357.5 106.5t-125.5 304.5z M327 384q0 -152 75 -235t210 -83t210 83t75 235q0 150 -75 233t-210 83t-210 -83t-75 -233zM366 1065q0 -129 65 -200.5t181 -71.5t181 71.5t65 200.5q0 128 -65 199.5t-181 71.5t-181 -71.5t-65 -199.5z" />
<glyph unicode="9" d="M121 959q0 213 131.5 341.5t350.5 128.5q237 0 364.5 -177.5t127.5 -506.5q0 -368 -151.5 -570t-425.5 -202q-74 0 -156 14t-167 42v233h105q12 -95 73 -145.5t164 -50.5q182 0 271.5 137.5t92.5 425.5q-63 -71 -145 -105.5t-184 -34.5q-209 0 -330 126t-121 344z M320 959q0 -183 71 -280.5t204 -97.5t204 94.5t71 272.5q0 187 -71 287.5t-204 100.5t-204 -97.5t-71 -279.5z" />
<glyph unicode=":" horiz-adv-x="648" d="M200 98q0 52 36.5 89t88.5 37q53 0 89 -37t36 -89q0 -53 -35.5 -89t-89.5 -36q-53 0 -89 36t-36 89zM200 711q0 52 36.5 88.5t88.5 36.5q54 0 89.5 -36t35.5 -89q0 -54 -35.5 -89.5t-89.5 -35.5q-52 0 -88.5 36t-36.5 89z" />
<glyph unicode=";" horiz-adv-x="648" d="M70 -187q88 65 129.5 153t41.5 213v34h185q-8 -160 -76 -275.5t-205 -199.5zM204 711q0 52 36 88.5t89 36.5t89 -37t36 -88q0 -53 -36 -89t-89 -36t-89 36t-36 89z" />
<glyph unicode="&#x3c;" horiz-adv-x="1613" d="M204 525v157l1205 437v-160l-976 -356l976 -355v-160z" />
<glyph unicode="=" horiz-adv-x="1613" d="M204 337v150h1205v-150h-1205zM204 720v150h1205v-150h-1205z" />
<glyph unicode="&#x3e;" horiz-adv-x="1613" d="M204 88v160l976 355l-976 356v160l1205 -437v-157z" />
<glyph unicode="?" horiz-adv-x="1032" d="M131 1097v244q99 45 189 66.5t169 21.5q208 0 329 -100.5t121 -271.5q0 -175 -104 -286t-313 -159v-239h-116v309q166 40 250.5 135t84.5 241q0 129 -69 203.5t-187 74.5q-107 0 -175 -61.5t-88 -177.5h-91zM338 98q0 52 36.5 89t89.5 37q52 0 88.5 -37t36.5 -89 t-36.5 -88.5t-88.5 -36.5q-53 0 -89.5 36t-36.5 89z" />
<glyph unicode="@" horiz-adv-x="1925" d="M127 510q0 173 63 326.5t183 272.5t282 182.5t344 63.5q201 0 367 -78t278 -224q72 -92 108.5 -200.5t36.5 -224.5q0 -252 -153.5 -398t-418.5 -149l-1 152q-55 -77 -124 -114.5t-157 -37.5q-164 0 -266.5 117.5t-102.5 306.5t102.5 306t266.5 117q88 0 157 -37.5 t124 -114.5v133h147v-726q160 35 248.5 152.5t88.5 294.5q0 104 -32 197t-95 172q-100 125 -243.5 191.5t-311.5 66.5q-85 0 -167.5 -18t-163.5 -55q-190 -87 -295 -264t-105 -410q0 -157 47 -289t136 -229q102 -111 243 -170t303 -59q121 0 226.5 36t195.5 107l50 -66 q-102 -87 -230.5 -131t-281.5 -44q-172 0 -328.5 62.5t-274.5 178.5q-121 119 -183.5 273t-62.5 331zM733 505q0 -150 64 -232t179 -82q107 0 173.5 73.5t66.5 191.5v99q0 117 -67 190t-175 73q-114 0 -177.5 -82.5t-63.5 -230.5z" />
<glyph unicode="A" horiz-adv-x="1390" d="M-11 0v100h123l500 1303h158l501 -1303h138v-100h-510v100h156l-118 308h-590l-118 -308h155v-100h-395zM385 509h516l-258 667z" />
<glyph unicode="B" horiz-adv-x="1414" d="M106 0v100h179v1203h-179v100h693q212 0 320 -86.5t108 -259.5q0 -125 -75 -199.5t-219 -91.5q179 -22 271.5 -114t92.5 -246q0 -209 -131.5 -307.5t-410.5 -98.5h-649zM476 100h281q169 0 247 73t78 233q0 159 -77.5 232t-247.5 73h-281v-611zM476 810h238 q155 0 225.5 59.5t70.5 187.5t-70.5 187t-225.5 59h-238v-493z" />
<glyph unicode="C" horiz-adv-x="1472" d="M108 700q0 327 189 528t498 201q115 0 244.5 -30t279.5 -91v-324h-106q-35 177 -140 260.5t-294 83.5q-224 0 -340 -159t-116 -469q0 -308 116 -467.5t340 -159.5q157 0 258.5 75t146.5 223h173q-62 -196 -208 -297t-370 -101q-137 0 -254.5 47t-208.5 138 q-105 105 -156.5 239t-51.5 303z" />
<glyph unicode="D" horiz-adv-x="1543" d="M106 0v100h179v1203h-179v100h559q362 0 565 -185t203 -515q0 -331 -203.5 -517t-564.5 -186h-559zM476 100h174q274 0 420 156t146 447q0 292 -145.5 446t-420.5 154h-174v-1203z" />
<glyph unicode="E" horiz-adv-x="1405" d="M106 0v100h179v1203h-179v100h1130v-312h-116v197h-644v-470h459v176h116v-467h-116v176h-459v-587h660v196h115v-312h-1145z" />
<glyph unicode="F" horiz-adv-x="1335" d="M106 0v100h179v1203h-179v100h1149v-312h-116v197h-663v-470h479v176h116v-467h-116v176h-479v-603h224v-100h-594z" />
<glyph unicode="G" horiz-adv-x="1537" d="M108 700q0 333 192 531t516 198q120 0 248.5 -28t273.5 -84v-333h-106q-33 176 -137 260t-290 84q-243 0 -362.5 -156t-119.5 -472q0 -309 123.5 -468t361.5 -159q107 0 203.5 26.5t184.5 79.5v361h-264v101h454v-523q-125 -73 -269 -109t-309 -36q-317 0 -508.5 198.5 t-191.5 528.5z" />
<glyph unicode="H" horiz-adv-x="1678" d="M106 0v100h179v1203h-179v100h548v-100h-178v-485h727v485h-178v100h548v-100h-179v-1203h179v-100h-548v100h178v603h-727v-603h178v-100h-548z" />
<glyph unicode="I" horiz-adv-x="760" d="M106 0v100h179v1203h-179v100h548v-100h-178v-1203h178v-100h-548z" />
<glyph unicode="J" horiz-adv-x="771" d="M-162 -116h107q3 -93 44.5 -138.5t124.5 -45.5q112 0 156 70.5t44 275.5v1257h-218v100h587v-100h-178v-1264q0 -233 -93 -336t-300 -103q-67 0 -136 16t-138 47v221z" />
<glyph unicode="K" horiz-adv-x="1438" d="M106 0v100h179v1203h-179v100h548v-100h-178v-531l604 531h-152v100h466v-100h-158l-602 -529l674 -674h159v-100h-326l-665 666v-566h178v-100h-548z" />
<glyph unicode="L" horiz-adv-x="1278" d="M106 0v100h179v1203h-179v100h548v-100h-178v-1187h641v235h115v-351h-1126z" />
<glyph unicode="M" horiz-adv-x="1971" d="M96 1303v100h409l492 -999l493 999h383v-100h-187v-1203h180v-100h-549v100h179v1084l-482 -978h-132l-482 978v-1084h179v-100h-473v100h179v1203h-189z" />
<glyph unicode="N" horiz-adv-x="1684" d="M94 0v100h189v1203h-189v100h360l841 -1107v1007h-188v100h493v-100h-189v-1330h-114l-898 1182v-1055h189v-100h-494z" />
<glyph unicode="O" horiz-adv-x="1578" d="M108 700q0 170 51.5 304t156.5 240q92 92 210.5 138.5t263.5 46.5q305 0 493 -200.5t188 -528.5q0 -168 -51.5 -303t-157.5 -239q-92 -92 -210.5 -138.5t-261.5 -46.5t-263 47t-211 138q-105 105 -156.5 238.5t-51.5 303.5zM323 700q0 -310 117.5 -468.5t349.5 -158.5 q230 0 347.5 158.5t117.5 468.5q0 311 -117.5 469.5t-347.5 158.5q-232 0 -349.5 -158.5t-117.5 -469.5z" />
<glyph unicode="P" horiz-adv-x="1295" d="M106 0v100h179v1203h-179v100h664q210 0 333.5 -106.5t123.5 -287.5t-123.5 -288t-333.5 -107h-294v-514h217v-100h-587zM476 714h248q140 0 213 76t73 219t-73 218.5t-213 75.5h-248v-589z" />
<glyph unicode="Q" horiz-adv-x="1578" d="M108 700q0 170 51.5 304t156.5 240q92 92 210.5 138.5t263.5 46.5q305 0 493 -200.5t188 -528.5q0 -278 -141 -467.5t-389 -243.5q51 -63 123.5 -93t175.5 -30h29v-174q-159 7 -272 77t-185 204q-322 0 -513 197.5t-191 529.5zM323 700q0 -310 117.5 -468.5t349.5 -158.5 q230 0 347.5 158.5t117.5 468.5q0 311 -117.5 469.5t-347.5 158.5q-232 0 -349.5 -158.5t-117.5 -469.5z" />
<glyph unicode="R" horiz-adv-x="1449" d="M106 0v100h179v1203h-179v100h712q205 0 316.5 -97.5t111.5 -277.5q0 -144 -81.5 -227.5t-242.5 -103.5q66 -18 113.5 -61t84.5 -120l204 -416h172v-100h-331l-219 446q-63 130 -116 168t-145 38h-209v-552h198v-100h-568zM476 753h277q142 0 209.5 67t67.5 208 t-67.5 208t-209.5 67h-277v-550z" />
<glyph unicode="S" horiz-adv-x="1318" d="M162 1053q0 178 126.5 277t356.5 99q98 0 214.5 -21.5t247.5 -61.5v-299h-106q-16 149 -99 215t-253 66q-149 0 -226.5 -60.5t-77.5 -176.5q0 -100 58.5 -157.5t246.5 -113.5l174 -52q191 -57 272.5 -146t81.5 -238q0 -204 -131 -307.5t-389 -103.5q-116 0 -235.5 23.5 t-243.5 71.5v319l108 -1q4 -159 92 -236t268 -77q167 0 255 66.5t88 193.5q0 101 -53 155.5t-224 106.5l-186 55q-201 62 -283 153t-82 250z" />
<glyph unicode="T" horiz-adv-x="1284" d="M19 1073v330h1246v-330h-115v219h-413v-1192h179v-100h-548v100h179v1192h-413v-219h-115z" />
<glyph unicode="U" horiz-adv-x="1622" d="M90 1303v100h549v-100h-179v-726q0 -269 87.5 -375t303.5 -106q215 0 303 106t88 375v726h-180v100h474v-100h-179v-745q0 -320 -123 -452.5t-418 -132.5t-420.5 133.5t-125.5 451.5v745h-180z" />
<glyph unicode="V" horiz-adv-x="1390" d="M-19 1303v100h512v-100h-156l414 -1077l414 1077h-158v100h411v-100h-136l-501 -1303h-162l-498 1303h-140z" />
<glyph unicode="W" horiz-adv-x="1978" d="M9 1303v100h513v-100h-175l292 -1037l320 1137h152l325 -1149l295 1049h-162v100h404v-100h-138l-368 -1303h-154l-321 1141l-322 -1141h-154l-367 1303h-140z" />
<glyph unicode="X" horiz-adv-x="1370" d="M11 0v100h162l404 589l-410 614h-150v100h556v-100h-165l301 -452l309 452h-180v100h459v-100h-158l-371 -541l443 -662h150v-100h-556v100h167l-335 501l-343 -501h182v-100h-465z" />
<glyph unicode="Y" horiz-adv-x="1270" d="M-22 1303v100h522v-100h-163l350 -568l351 568h-158v100h408v-100h-133l-422 -681v-522h180v-100h-549v100h179v504l-433 699h-132z" />
<glyph unicode="Z" horiz-adv-x="1337" d="M86 0v68l875 1220h-726v-210h-116v325h1110v-67l-875 -1220h794v196h114v-312h-1176z" />
<glyph unicode="[" horiz-adv-x="751" d="M165 -254v1717h438v-100h-258v-1517h258v-100h-438z" />
<glyph unicode="\" horiz-adv-x="648" d="M0 1403h150l499 -1582h-151z" />
<glyph unicode="]" horiz-adv-x="751" d="M149 -154h257v1517h-257v100h437v-1717h-437v100z" />
<glyph unicode="^" horiz-adv-x="1613" d="M204 880l510 523h185l510 -523h-144l-458 358l-458 -358h-145z" />
<glyph unicode="_" horiz-adv-x="962" d="M0 -379h963v-75h-963v75z" />
<glyph unicode="`" horiz-adv-x="962" d="M160 1538h185l244 -354h-110z" />
<glyph unicode="a" horiz-adv-x="1147" d="M96 300q0 155 112 240.5t316 85.5h242v69q0 113 -69 175.5t-194 62.5q-103 0 -164.5 -47t-76.5 -139h-89v202q90 39 175 58t166 19q208 0 316.5 -102.5t108.5 -299.5v-524h154v-100h-327v108q-57 -69 -132.5 -102t-175.5 -33q-167 0 -264.5 88t-97.5 239zM289 300 q0 -104 63.5 -165.5t172.5 -61.5t175 67t66 174v211h-223q-128 0 -191 -55t-63 -170z" />
<glyph unicode="b" horiz-adv-x="1232" d="M55 0v100h167v1263h-167v100h340v-620q51 94 129.5 138.5t193.5 44.5q184 0 301 -145.5t117 -380.5t-117 -381t-301 -146q-115 0 -193.5 44.5t-129.5 138.5v-156h-340zM395 450q0 -180 69 -274.5t201 -94.5t200 106t68 313q0 208 -68 313t-200 105t-201 -95t-69 -274v-99 z" />
<glyph unicode="c" horiz-adv-x="1078" d="M96 500q0 240 132.5 383t350.5 143q95 0 189 -22t189 -67v-255h-101q-19 131 -85.5 191t-189.5 60q-140 0 -211.5 -108.5t-71.5 -324.5t71 -325t212 -109q112 0 178.5 58t91.5 176h139q-37 -160 -141.5 -243.5t-269.5 -83.5q-218 0 -350.5 144t-132.5 383z" />
<glyph unicode="d" horiz-adv-x="1232" d="M96 500q0 235 116.5 380.5t301.5 145.5q116 0 194.5 -44.5t129.5 -138.5v520h-164v100h336v-1363h166v-100h-338v156q-51 -94 -129.5 -138.5t-194.5 -44.5q-184 0 -301 146t-117 381zM298 500q0 -207 68 -313t202 -106q131 0 200.5 94.5t69.5 274.5v99q0 179 -69.5 274 t-200.5 95q-134 0 -202 -105t-68 -313z" />
<glyph unicode="e" horiz-adv-x="1139" d="M96 500q0 237 130.5 381.5t343.5 144.5q226 0 347.5 -139.5t125.5 -405.5h-745v-7q0 -202 76 -305t225 -103q114 0 186.5 59.5t101.5 177.5h139q-41 -165 -152.5 -247.5t-292.5 -82.5q-219 0 -352 144t-133 383zM298 581h541q-5 175 -73.5 263.5t-195.5 88.5 q-120 0 -188.5 -89t-83.5 -263z" />
<glyph unicode="f" horiz-adv-x="712" d="M70 0v100h165v799h-165v100h165v125q0 168 87 253.5t255 85.5q63 0 126 -11.5t125 -34.5v-190h-91q-1 70 -40 107t-113 37q-97 0 -136.5 -53.5t-39.5 -189.5v-129h279v-100h-279v-799h222v-100h-560z" />
<glyph unicode="g" horiz-adv-x="1232" d="M96 500q0 235 116.5 380.5t301.5 145.5q116 0 194.5 -44.5t129.5 -138.5v156h338v-100h-166v-877q0 -216 -118 -333t-337 -117q-99 0 -189.5 18t-172.5 54v209h90q17 -97 80 -142.5t180 -45.5q153 0 224 86t71 271v134q-51 -94 -129.5 -138.5t-194.5 -44.5 q-184 0 -301 146t-117 381zM298 500q0 -207 68 -313t202 -106q131 0 200.5 94.5t69.5 274.5v99q0 179 -69.5 274t-200.5 95q-134 0 -202 -105t-68 -313z" />
<glyph unicode="h" horiz-adv-x="1239" d="M70 1363v100h338v-641q48 101 124.5 152.5t178.5 51.5q165 0 243 -94.5t78 -296.5v-535h154v-100h-477v100h149v481q0 183 -44.5 250.5t-159.5 67.5q-120 0 -183 -87.5t-63 -255.5v-456h150v-100h-479v100h156v1263h-165z" />
<glyph unicode="i" horiz-adv-x="615" d="M70 0v100h165v799h-165v100h338v-899h164v-100h-502zM187 1309q0 44 31.5 76t75.5 32q43 0 74.5 -32t31.5 -76t-31 -75t-75 -31t-75.5 31t-31.5 75z" />
<glyph unicode="j" horiz-adv-x="596" d="M-185 -160h89q7 -90 47 -132.5t117 -42.5q85 0 126 58t41 179v997h-164v100h337v-1097q0 -154 -91.5 -242t-252.5 -88q-68 0 -129.5 15.5t-119.5 46.5v206zM193 1309q0 44 31.5 76t75.5 32q43 0 74.5 -32t31.5 -76t-30.5 -75t-75.5 -31q-44 0 -75.5 31t-31.5 75z" />
<glyph unicode="k" horiz-adv-x="1166" d="M55 1363v100h340v-953l421 389h-144v100h452v-100h-171l-297 -275l380 -524h144v-100h-493v100h143l-299 410l-136 -126v-284h156v-100h-485v100h156v1263h-167z" />
<glyph unicode="l" horiz-adv-x="615" d="M55 0v100h167v1263h-167v100h340v-1363h163v-100h-503z" />
<glyph unicode="m" horiz-adv-x="1825" d="M70 901v98h338v-177q48 99 122 151.5t168 52.5q117 0 195 -57.5t104 -163.5q50 110 127.5 165.5t181.5 55.5q157 0 234 -97t77 -294v-535h156v-100h-480v100h151v516q0 153 -45 218t-150 65q-115 0 -176 -87.5t-61 -255.5v-456h151v-100h-474v100h150v522 q0 150 -45 213.5t-149 63.5q-116 0 -176.5 -87.5t-60.5 -255.5v-456h150v-100h-479v100h156v801h-165z" />
<glyph unicode="n" horiz-adv-x="1239" d="M70 899v100h338v-177q48 101 124.5 152.5t178.5 51.5q165 0 243 -94.5t78 -296.5v-535h154v-100h-477v100h149v481q0 183 -45 251.5t-159 68.5q-120 0 -183 -88t-63 -257v-456h150v-100h-479v100h156v799h-165z" />
<glyph unicode="o" horiz-adv-x="1159" d="M96 500q0 239 132 382.5t351 143.5t351 -143.5t132 -382.5t-132 -383t-351 -144q-218 0 -350.5 144t-132.5 383zM298 500q0 -214 71.5 -324t209.5 -110q139 0 210 110t71 324t-71 323.5t-210 109.5t-210 -109.5t-71 -323.5z" />
<glyph unicode="p" horiz-adv-x="1232" d="M55 -300h167v1199h-167v100h340v-156q51 94 129.5 138.5t193.5 44.5q184 0 301 -145.5t117 -380.5t-117 -381t-301 -146q-115 0 -193.5 44.5t-129.5 138.5v-456h163v-100h-503v100zM395 450q0 -180 69 -274.5t201 -94.5t200 106t68 313q0 208 -68 313t-200 105t-201 -95 t-69 -274v-99z" />
<glyph unicode="q" horiz-adv-x="1232" d="M96 500q0 235 116.5 380.5t301.5 145.5q116 0 194.5 -44.5t129.5 -138.5v156h338v-100h-166v-1199h166v-100h-502v100h164v456q-51 -94 -129.5 -138.5t-194.5 -44.5q-184 0 -301 146t-117 381zM298 500q0 -207 68 -313t202 -106q131 0 200.5 94.5t69.5 274.5v99 q0 179 -69.5 274t-200.5 95q-134 0 -202 -105t-68 -313z" />
<glyph unicode="r" horiz-adv-x="920" d="M70 901v98h338v-177q51 104 131 154t194 50q43 0 89.5 -6.5t97.5 -18.5v-250h-99q-5 74 -41.5 111t-107.5 37q-128 0 -196 -88.5t-68 -254.5v-456h200v-100h-529v100h156v801h-165z" />
<glyph unicode="s" horiz-adv-x="987" d="M108 55v234h100q4 -112 70 -167.5t196 -55.5q116 0 177.5 43.5t61.5 127.5q0 66 -45 106.5t-189 86.5l-125 42q-128 41 -186 103t-58 158q0 137 100.5 215t278.5 78q79 0 166.5 -20.5t180.5 -59.5v-218h-100q-4 96 -68 150.5t-174 54.5q-109 0 -164.5 -38.5t-55.5 -115.5 q0 -63 42 -101t169 -77l137 -43q142 -44 204.5 -110t62.5 -171q0 -142 -108.5 -223t-299.5 -81q-97 0 -189 20.5t-184 61.5z" />
<glyph unicode="t" horiz-adv-x="773" d="M55 899v100h153v310h174v-310h325v-100h-325v-635q0 -127 24.5 -162.5t89.5 -35.5q68 0 99 40t33 129h131q-8 -136 -74.5 -199t-203.5 -63q-149 0 -211 66t-62 225v635h-153z" />
<glyph unicode="u" horiz-adv-x="1239" d="M52 899v100h330v-582q0 -182 44.5 -249.5t159.5 -67.5q120 0 183 88t63 257v454h-150v100h323v-899h163v-100h-336v177q-48 -100 -124 -152t-177 -52q-166 0 -244.5 94.5t-78.5 296.5v535h-156z" />
<glyph unicode="v" horiz-adv-x="1087" d="M-6 899v100h460v-100h-160l281 -687l281 687h-149v100h375v-100h-112l-367 -899h-127l-368 899h-114z" />
<glyph unicode="w" horiz-adv-x="1647" d="M31 899v100h452v-100h-162l224 -680l258 780h121l256 -780l225 680h-144v100h361v-100h-110l-298 -899h-143l-247 747l-247 -747h-138l-296 899h-112z" />
<glyph unicode="x" horiz-adv-x="1085" d="M24 899v100h446v-100h-119l209 -289l210 289h-135v100h385v-100h-133l-268 -370l313 -429h130v-100h-461v100h127l-218 299l-218 -299h130v-100h-380v100h133l275 379l-303 420h-123z" />
<glyph unicode="y" horiz-adv-x="1087" d="M-6 899v100h460v-100h-160l281 -687l281 687h-149v100h375v-100h-112l-458 -1125q-47 -116 -104 -159t-162 -43q-44 0 -90.5 7.5t-93.5 21.5v191h88q6 -64 33 -91.5t83 -27.5q52 0 83.5 28.5t65.5 115.5l66 166l-373 916h-114z" />
<glyph unicode="z" horiz-adv-x="1014" d="M77 0v81l626 818h-495v-173h-100v273h818v-81l-626 -818h543v181h101v-281h-867z" />
<glyph unicode="{" d="M241 525v99h57q133 0 184 54.5t51 195.5v243q0 207 79.5 276.5t313.5 69.5h58v-98h-64q-132 0 -172.5 -41.5t-40.5 -173.5v-270q0 -149 -47 -213t-169 -92q124 -32 170 -95t46 -210v-270q0 -133 40.5 -174t172.5 -41h64v-99h-58q-234 0 -313.5 69.5t-79.5 277.5v242 q0 141 -51 195.5t-184 54.5h-57z" />
<glyph unicode="|" horiz-adv-x="648" d="M248 -454v1925h152v-1925h-152z" />
<glyph unicode="}" d="M241 -215h65q132 0 172 41t40 174v270q0 147 46 210t169 95q-122 28 -168.5 92t-46.5 213v270q0 133 -40 174t-172 41h-65v98h59q234 0 312.5 -69.5t78.5 -276.5v-243q0 -141 50.5 -195.5t184.5 -54.5h58v-99h-58q-134 0 -184.5 -54.5t-50.5 -195.5v-242 q0 -208 -78.5 -277.5t-312.5 -69.5h-59v99z" />
<glyph unicode="~" horiz-adv-x="1613" d="M204 448v143q94 82 178 120t173 38q90 0 253 -62l10 -4q10 -3 29 -11q136 -54 227 -54q87 0 169.5 34.5t165.5 106.5v-140q-94 -82 -178.5 -121.5t-172.5 -39.5q-90 0 -253 62l-10 4q-10 3 -31 12q-138 53 -227 53q-87 0 -168 -34t-165 -107z" />
<glyph unicode="&#xa2;" d="M145 500q0 228 119.5 368.5t326.5 156.5v250h94v-250q87 -8 166 -29.5t154 -58.5v-255h-100q-18 115 -72 176.5t-148 73.5v-864q85 11 139.5 70.5t74.5 161.5h139q-33 -145 -121.5 -226.5t-231.5 -98.5v-254h-94v254q-207 17 -326.5 158t-119.5 367zM349 500 q0 -202 60.5 -310t181.5 -122v864q-121 -15 -181.5 -123t-60.5 -309z" />
<glyph unicode="&#xa3;" d="M129 0v100h181v558h-181v101h181v277q0 193 107.5 293t315.5 100q80 0 156 -12t147 -35v-230h-99q-9 89 -62 136.5t-144 47.5q-119 0 -176 -73t-57 -227v-277h387v-101h-387v-544h450v213h109v-327h-928z" />
<glyph unicode="&#xa5;" d="M-15 1303v100h520v-100h-165l323 -568l318 568h-157v100h406v-100h-133l-267 -467h256v-99h-312l-67 -115v-79h379v-98h-379v-345h178v-100h-547v100h180v345h-380v98h380v61l-77 133h-303v99h247l-269 467h-131z" />
<glyph unicode="&#xa8;" horiz-adv-x="962" d="M189 1365q0 45 32.5 77.5t76.5 32.5q45 0 77.5 -32.5t32.5 -77.5q0 -48 -31 -79t-79 -31q-47 0 -78 31t-31 79zM555 1365q0 45 32 77.5t78 32.5q44 0 76.5 -32.5t32.5 -77.5q0 -48 -31 -79t-78 -31q-48 0 -79 31t-31 79z" />
<glyph unicode="&#xa9;" horiz-adv-x="1925" d="M266 697q0 144 51 267.5t153 225.5t226 154t267 52q142 0 266 -52t226 -154q103 -102 153.5 -225.5t50.5 -267.5q0 -143 -50.5 -266t-153.5 -225q-102 -103 -226 -154.5t-266 -51.5q-143 0 -267 51.5t-226 154.5q-102 102 -153 225t-51 266zM362 697q0 -123 44.5 -229 t132.5 -194q88 -89 194 -133.5t230 -44.5t230.5 44.5t194.5 133.5q88 87 131.5 193t43.5 230q0 125 -44 231.5t-131 193.5q-88 89 -194.5 133t-230.5 44t-230 -44t-194 -133q-88 -87 -132.5 -194.5t-44.5 -230.5zM579 697q0 188 106 302t279 114q76 0 148.5 -17.5 t154.5 -53.5v-201h-79q-16 103 -69.5 151t-152.5 48q-112 0 -168.5 -86t-56.5 -257t56.5 -256t166.5 -85q92 0 145 45t73 138h111q-25 -124 -110 -190t-219 -66q-175 0 -280 113t-105 301z" />
<glyph unicode="&#xab;" horiz-adv-x="1177" d="M149 525v78l440 392v-108l-279 -323l279 -323v-108zM556 525v78l441 392v-108l-279 -323l279 -323v-108z" />
<glyph unicode="&#xad;" horiz-adv-x="650" d="M85 443v146h481v-146h-481z" />
<glyph unicode="&#xae;" horiz-adv-x="1925" d="M266 697q0 144 51 267.5t153 225.5t226 154t267 52q142 0 266 -52t226 -154q103 -102 153.5 -225.5t50.5 -267.5q0 -143 -50.5 -266t-153.5 -225q-102 -103 -226 -154.5t-266 -51.5q-143 0 -267 51.5t-226 154.5q-102 102 -153 225t-51 266zM362 697q0 -123 44.5 -229 t132.5 -194q88 -89 194 -133.5t230 -44.5t230.5 44.5t194.5 133.5q88 87 131.5 193t43.5 230q0 125 -44 231.5t-131 193.5q-88 89 -194.5 133t-230.5 44t-230 -44t-194 -133q-88 -87 -132.5 -194.5t-44.5 -230.5zM622 331v64h78v631h-78v63h390q121 0 182 -52.5t61 -154.5 q0 -78 -45 -121t-137 -52q39 -13 66.5 -37t46.5 -62l109 -215h72v-64h-179l-123 239q-33 65 -62 87.5t-75 22.5h-87v-285h79v-64h-298zM841 744h118q78 0 117 35.5t39 105.5t-39.5 105.5t-116.5 35.5h-118v-282z" />
<glyph unicode="&#xb4;" horiz-adv-x="962" d="M369 1186l243 354h187l-320 -354h-110z" />
<glyph unicode="&#xb8;" horiz-adv-x="962" d="M274 -226q38 -16 75 -24t70 -8q54 0 85 25t31 68q0 26 -20.5 67.5t-62.5 97.5h91q60 -60 90 -112.5t30 -99.5q0 -76 -59.5 -117.5t-164.5 -41.5q-39 0 -80.5 5.5t-84.5 16.5v123z" />
<glyph unicode="&#xbb;" horiz-adv-x="1177" d="M181 133v108l279 323l-279 323v108l441 -392v-78zM589 133v108l280 323l-280 323v108l441 -392v-78z" />
<glyph unicode="&#xc1;" horiz-adv-x="1390" d="M-11 0v100h123l500 1303h158l501 -1303h138v-100h-510v100h156l-118 308h-590l-118 -308h155v-100h-395zM385 509h516l-258 667zM583 1537l171 248h185l-246 -248h-110z" />
<glyph unicode="&#xc9;" horiz-adv-x="1405" d="M106 0v100h179v1203h-179v100h1130v-312h-116v197h-644v-470h459v176h116v-467h-116v176h-459v-587h660v196h115v-312h-1145zM591 1537l171 248h185l-246 -248h-110z" />
<glyph unicode="&#xcd;" horiz-adv-x="760" d="M106 0v100h179v1203h-179v100h548v-100h-178v-1203h178v-100h-548zM270 1537l171 248h185l-246 -248h-110z" />
<glyph unicode="&#xd3;" horiz-adv-x="1578" d="M108 700q0 170 51.5 304t156.5 240q92 92 210.5 138.5t263.5 46.5q305 0 493 -200.5t188 -528.5q0 -168 -51.5 -303t-157.5 -239q-92 -92 -210.5 -138.5t-261.5 -46.5t-263 47t-211 138q-105 105 -156.5 238.5t-51.5 303.5zM323 700q0 -310 117.5 -468.5t349.5 -158.5 q230 0 347.5 158.5t117.5 468.5q0 311 -117.5 469.5t-347.5 158.5q-232 0 -349.5 -158.5t-117.5 -469.5zM678 1537l171 248h185l-246 -248h-110z" />
<glyph unicode="&#xd6;" horiz-adv-x="1578" d="M108 700q0 170 51.5 304t156.5 240q92 92 210.5 138.5t263.5 46.5q305 0 493 -200.5t188 -528.5q0 -168 -51.5 -303t-157.5 -239q-92 -92 -210.5 -138.5t-261.5 -46.5t-263 47t-211 138q-105 105 -156.5 238.5t-51.5 303.5zM323 700q0 -310 117.5 -468.5t349.5 -158.5 q230 0 347.5 158.5t117.5 468.5q0 311 -117.5 469.5t-347.5 158.5q-232 0 -349.5 -158.5t-117.5 -469.5zM497 1662q0 44 32.5 76.5t76.5 32.5q46 0 78 -32.5t32 -76.5q0 -47 -31.5 -78.5t-78.5 -31.5q-46 0 -77.5 31.5t-31.5 78.5zM863 1662q0 44 32.5 76.5t77.5 32.5 q44 0 76.5 -32.5t32.5 -76.5q0 -47 -31.5 -78.5t-77.5 -31.5q-47 0 -78.5 31.5t-31.5 78.5z" />
<glyph unicode="&#xda;" horiz-adv-x="1622" d="M90 1303v100h549v-100h-179v-726q0 -269 87.5 -375t303.5 -106q215 0 303 106t88 375v726h-180v100h474v-100h-179v-745q0 -320 -123 -452.5t-418 -132.5t-420.5 133.5t-125.5 451.5v745h-180zM737 1537l171 248h185l-246 -248h-110z" />
<glyph unicode="&#xdc;" horiz-adv-x="1622" d="M90 1303v100h549v-100h-179v-726q0 -269 87.5 -375t303.5 -106q215 0 303 106t88 375v726h-180v100h474v-100h-179v-745q0 -320 -123 -452.5t-418 -132.5t-420.5 133.5t-125.5 451.5v745h-180zM556 1662q0 44 32.5 76.5t76.5 32.5q46 0 78 -32.5t32 -76.5 q0 -47 -31.5 -78.5t-78.5 -31.5q-46 0 -77.5 31.5t-31.5 78.5zM922 1662q0 44 32.5 76.5t77.5 32.5q44 0 76.5 -32.5t32.5 -76.5q0 -47 -31.5 -78.5t-77.5 -31.5q-47 0 -78.5 31.5t-31.5 78.5z" />
<glyph unicode="&#xe1;" horiz-adv-x="1147" d="M96 300q0 155 112 240.5t316 85.5h242v69q0 113 -69 175.5t-194 62.5q-103 0 -164.5 -47t-76.5 -139h-89v202q90 39 175 58t166 19q208 0 316.5 -102.5t108.5 -299.5v-524h154v-100h-327v108q-57 -69 -132.5 -102t-175.5 -33q-167 0 -264.5 88t-97.5 239zM289 300 q0 -104 63.5 -165.5t172.5 -61.5t175 67t66 174v211h-223q-128 0 -191 -55t-63 -170zM423 1186l243 354h187l-320 -354h-110z" />
<glyph unicode="&#xe9;" horiz-adv-x="1139" d="M96 500q0 237 130.5 381.5t343.5 144.5q226 0 347.5 -139.5t125.5 -405.5h-745v-7q0 -202 76 -305t225 -103q114 0 186.5 59.5t101.5 177.5h139q-41 -165 -152.5 -247.5t-292.5 -82.5q-219 0 -352 144t-133 383zM298 581h541q-5 175 -73.5 263.5t-195.5 88.5 q-120 0 -188.5 -89t-83.5 -263zM457 1186l243 354h187l-320 -354h-110z" />
<glyph unicode="&#xed;" horiz-adv-x="615" d="M70 0v100h165v799h-165v100h338v-899h164v-100h-502zM196 1186l243 354h187l-320 -354h-110z" />
<glyph unicode="&#xf3;" horiz-adv-x="1159" d="M96 500q0 239 132 382.5t351 143.5t351 -143.5t132 -382.5t-132 -383t-351 -144q-218 0 -350.5 144t-132.5 383zM298 500q0 -214 71.5 -324t209.5 -110q139 0 210 110t71 324t-71 323.5t-210 109.5t-210 -109.5t-71 -323.5zM467 1186l243 354h187l-320 -354h-110z" />
<glyph unicode="&#xf6;" horiz-adv-x="1159" d="M96 500q0 239 132 382.5t351 143.5t351 -143.5t132 -382.5t-132 -383t-351 -144q-218 0 -350.5 144t-132.5 383zM287 1365q0 45 32.5 77.5t76.5 32.5q45 0 77.5 -32.5t32.5 -77.5q0 -48 -31 -79t-79 -31q-47 0 -78 31t-31 79zM298 500q0 -214 71.5 -324t209.5 -110 q139 0 210 110t71 324t-71 323.5t-210 109.5t-210 -109.5t-71 -323.5zM653 1365q0 45 32 77.5t78 32.5q44 0 76.5 -32.5t32.5 -77.5q0 -48 -31 -79t-78 -31q-48 0 -79 31t-31 79z" />
<glyph unicode="&#xfa;" horiz-adv-x="1239" d="M52 899v100h330v-582q0 -182 44.5 -249.5t159.5 -67.5q120 0 183 88t63 257v454h-150v100h323v-899h163v-100h-336v177q-48 -100 -124 -152t-177 -52q-166 0 -244.5 94.5t-78.5 296.5v535h-156zM437 1186l243 354h187l-320 -354h-110z" />
<glyph unicode="&#xfc;" horiz-adv-x="1239" d="M52 899v100h330v-582q0 -182 44.5 -249.5t159.5 -67.5q120 0 183 88t63 257v454h-150v100h323v-899h163v-100h-336v177q-48 -100 -124 -152t-177 -52q-166 0 -244.5 94.5t-78.5 296.5v535h-156zM257 1365q0 45 32.5 77.5t76.5 32.5q45 0 77.5 -32.5t32.5 -77.5 q0 -48 -31 -79t-79 -31q-47 0 -78 31t-31 79zM623 1365q0 45 32 77.5t78 32.5q44 0 76.5 -32.5t32.5 -77.5q0 -48 -31 -79t-78 -31q-48 0 -79 31t-31 79z" />
<glyph unicode="&#x150;" horiz-adv-x="1578" d="M108 700q0 170 51.5 304t156.5 240q92 92 210.5 138.5t263.5 46.5q305 0 493 -200.5t188 -528.5q0 -168 -51.5 -303t-157.5 -239q-92 -92 -210.5 -138.5t-261.5 -46.5t-263 47t-211 138q-105 105 -156.5 238.5t-51.5 303.5zM323 700q0 -310 117.5 -468.5t349.5 -158.5 q230 0 347.5 158.5t117.5 468.5q0 311 -117.5 469.5t-347.5 158.5q-232 0 -349.5 -158.5t-117.5 -469.5zM538 1537l171 248h185l-246 -248h-110zM836 1537l171 248h185l-246 -248h-110z" />
<glyph unicode="&#x151;" horiz-adv-x="1159" d="M96 500q0 239 132 382.5t351 143.5t351 -143.5t132 -382.5t-132 -383t-351 -144q-218 0 -350.5 144t-132.5 383zM298 500q0 -214 71.5 -324t209.5 -110q139 0 210 110t71 324t-71 323.5t-210 109.5t-210 -109.5t-71 -323.5zM387 1186l177 354h160l-229 -354h-108z M663 1186l211 354h168l-270 -354h-109z" />
<glyph unicode="&#x170;" horiz-adv-x="1622" d="M90 1303v100h549v-100h-179v-726q0 -269 87.5 -375t303.5 -106q215 0 303 106t88 375v726h-180v100h474v-100h-179v-745q0 -320 -123 -452.5t-418 -132.5t-420.5 133.5t-125.5 451.5v745h-180zM597 1537l171 248h185l-246 -248h-110zM895 1537l171 248h185l-246 -248 h-110z" />
<glyph unicode="&#x171;" horiz-adv-x="1239" d="M52 899v100h330v-582q0 -182 44.5 -249.5t159.5 -67.5q120 0 183 88t63 257v454h-150v100h323v-899h163v-100h-336v177q-48 -100 -124 -152t-177 -52q-166 0 -244.5 94.5t-78.5 296.5v535h-156zM336 1186l177 354h160l-229 -354h-108zM612 1186l211 354h168l-270 -354 h-109z" />
<glyph unicode="&#x2c6;" horiz-adv-x="962" d="M181 1186l221 354h158l221 -354h-109l-191 245l-191 -245h-109z" />
<glyph unicode="&#x2da;" horiz-adv-x="962" d="M224 1433q0 108 74.5 182.5t182.5 74.5t183 -74.5t75 -182.5q0 -109 -75 -184t-183 -75t-182.5 75t-74.5 184zM338 1433q0 -62 41 -102.5t102 -40.5q60 0 101.5 41t41.5 102q0 59 -41.5 100t-101.5 41q-61 0 -102 -40.5t-41 -100.5z" />
<glyph unicode="&#x2dc;" horiz-adv-x="962" d="M171 1230q2 127 50 196.5t133 69.5q36 0 66 -13.5t65 -44.5l54 -52q21 -21 37 -28.5t36 -7.5q40 0 62.5 37.5t26.5 108.5h90q-1 -127 -49 -196.5t-134 -69.5q-36 0 -66 13.5t-64 44.5l-54 52q-24 22 -40 29t-33 7q-40 0 -62.5 -37t-27.5 -109h-90z" />
<glyph unicode="&#x2000;" horiz-adv-x="892" />
<glyph unicode="&#x2001;" horiz-adv-x="1785" />
<glyph unicode="&#x2002;" horiz-adv-x="892" />
<glyph unicode="&#x2003;" horiz-adv-x="1785" />
<glyph unicode="&#x2004;" horiz-adv-x="595" />
<glyph unicode="&#x2005;" horiz-adv-x="446" />
<glyph unicode="&#x2006;" horiz-adv-x="297" />
<glyph unicode="&#x2007;" horiz-adv-x="297" />
<glyph unicode="&#x2008;" horiz-adv-x="223" />
<glyph unicode="&#x2009;" horiz-adv-x="357" />
<glyph unicode="&#x200a;" horiz-adv-x="99" />
<glyph unicode="&#x2010;" horiz-adv-x="650" d="M85 443v146h481v-146h-481z" />
<glyph unicode="&#x2011;" horiz-adv-x="650" d="M85 443v146h481v-146h-481z" />
<glyph unicode="&#x2012;" horiz-adv-x="650" d="M85 443v146h481v-146h-481z" />
<glyph unicode="&#x2013;" horiz-adv-x="962" d="M85 448v125h793v-125h-793z" />
<glyph unicode="&#x2014;" horiz-adv-x="1925" d="M85 448v125h1756v-125h-1756z" />
<glyph unicode="&#x2018;" horiz-adv-x="611" d="M196 953q1 164 60 277t187 199l73 -75q-72 -61 -104.5 -140.5t-32.5 -201.5v-59h-183z" />
<glyph unicode="&#x2019;" horiz-adv-x="611" d="M136 1003q74 59 106.5 140t32.5 203v57h183q-1 -162 -60.5 -276t-187.5 -199z" />
<glyph unicode="&#x201a;" horiz-adv-x="611" d="M85 -187q89 65 130 153t41 213v34h185q-8 -160 -76 -275.5t-205 -199.5z" />
<glyph unicode="&#x201c;" horiz-adv-x="984" d="M196 953q1 164 60 277t187 199l73 -75q-72 -61 -104.5 -140.5t-32.5 -201.5v-59h-183zM568 953q2 165 60 277.5t186 198.5l73 -75q-71 -61 -103.5 -140.5t-32.5 -201.5v-59h-183z" />
<glyph unicode="&#x201d;" horiz-adv-x="984" d="M136 1003q74 59 106.5 140t32.5 203v57h183q-1 -162 -60.5 -276t-187.5 -199zM510 1003q72 59 104.5 139.5t32.5 201.5v59h182q-1 -164 -59.5 -277t-185.5 -198z" />
<glyph unicode="&#x201e;" horiz-adv-x="997" d="M85 -187q89 65 130 153t41 213v34h185q-8 -160 -76 -275.5t-205 -199.5zM456 -187q89 65 130.5 153t41.5 213v34h184q-6 -160 -74.5 -275.5t-206.5 -199.5z" />
<glyph unicode="&#x2026;" horiz-adv-x="1925" d="M196 98q0 52 36.5 89t88.5 37t88.5 -37t36.5 -89t-36.5 -88.5t-88.5 -36.5q-53 0 -89 36t-36 89zM838 98q0 52 36 89t89 37q51 0 88 -37t37 -89t-37 -88.5t-88 -36.5q-54 0 -89.5 36t-35.5 89zM1479 98q0 52 36 89t89 37q51 0 88 -37t37 -89t-37 -88.5t-88 -36.5 q-54 0 -89.5 36t-35.5 89z" />
<glyph unicode="&#x202f;" horiz-adv-x="357" />
<glyph unicode="&#x2039;" horiz-adv-x="769" d="M149 525v78l440 392v-108l-279 -323l279 -323v-108z" />
<glyph unicode="&#x203a;" horiz-adv-x="769" d="M181 133v108l279 323l-279 323v108l441 -392v-78z" />
<glyph unicode="&#x205f;" horiz-adv-x="446" />
<glyph unicode="&#x20ac;" d="M-8 507l43 97h127q-1 15 -2 37q-2 46 -2 59q0 32 1 54.5t3 44.5h-170l43 98h136q44 248 171.5 390t306.5 142q93 0 186.5 -29t209.5 -94v-322h-99q-19 169 -91 260.5t-187 91.5q-128 0 -205.5 -112t-96.5 -327h473l-44 -98h-435q-1 -13 -2 -35q-2 -48 -2 -64q0 -8 1 -40 t1 -56h353l-45 -97h-300q21 -217 98 -329t204 -112q109 0 180 78.5t96 226.5h125q-41 -192 -149.5 -295t-270.5 -103q-178 0 -306 142.5t-172 391.5h-179z" />
<glyph unicode="&#x2122;" horiz-adv-x="1925" d="M227 1244v159h524v-159h-64v97h-144v-419h81v-62h-270v62h81v419h-146v-97h-62zM832 860v62h81v419h-81v62h219l163 -253l171 253h205v-62h-80v-419h80v-62h-267v62h80v401l-196 -293h-40l-188 293v-401h79v-62h-226z" />
<glyph unicode="&#xe000;" horiz-adv-x="1001" d="M0 0v1001h1001v-1001h-1001z" />
</font>
</defs>
</svg>
