<?xml version="1.0" encoding="utf-8"?>
<!-- Generated by IcoMoon.io -->
<!DOCTYPE svg PUBLIC "-//W3C//DTD SVG 1.1//EN" "http://www.w3.org/Graphics/SVG/1.1/DTD/svg11.dtd">
<svg version="1.1" xmlns="http://www.w3.org/2000/svg" xmlns:xlink="http://www.w3.org/1999/xlink" width="368" height="16" viewBox="0 0 368 16">
<g transform="translate(0 0)">
	<path d="M13.313 0h-10.625c-1.478 0-2.688 1.209-2.688 2.688v10.625c0 1.478 1.209 2.688 2.688 2.688h10.625c1.478 0 2.688-1.209 2.688-2.688v-10.625c0-1.478-1.209-2.688-2.688-2.688zM6 13h-2v-7h2v7zM5 5c-0.552 0-1-0.448-1-1s0.448-1 1-1 1 0.448 1 1-0.448 1-1 1zM13 13h-2v-4c0-0.552-0.448-1-1-1s-1 0.448-1 1v4h-2v-7h2v1.242c0.412-0.567 1.043-1.242 1.75-1.242 1.243 0 2.25 1.119 2.25 2.5v4.5z" fill="#ffffff" />
</g>
<g transform="translate(32 0)">
	<path d="M0 8.694c0 0.725 0.068 1.381 0.203 1.968 0.136 0.587 0.323 1.097 0.563 1.53 0.24 0.433 0.545 0.814 0.915 1.142 0.37 0.329 0.772 0.597 1.205 0.806 0.433 0.209 0.927 0.378 1.483 0.509 0.556 0.13 1.123 0.222 1.702 0.274 0.579 0.052 1.215 0.078 1.909 0.078 0.699 0 1.338-0.026 1.917-0.078 0.579-0.052 1.148-0.143 1.706-0.274 0.558-0.13 1.055-0.3 1.49-0.509 0.436-0.209 0.84-0.477 1.213-0.806 0.373-0.329 0.681-0.709 0.923-1.142 0.242-0.433 0.432-0.943 0.567-1.53 0.136-0.587 0.203-1.243 0.203-1.968 0-1.294-0.433-2.412-1.299-3.357 0.047-0.125 0.090-0.267 0.129-0.426 0.039-0.159 0.076-0.386 0.11-0.681 0.034-0.295 0.021-0.635-0.039-1.021-0.060-0.386-0.171-0.78-0.333-1.181l-0.117-0.023c-0.083-0.016-0.22-0.012-0.411 0.012s-0.412 0.070-0.665 0.141c-0.253 0.070-0.579 0.206-0.978 0.407-0.399 0.201-0.82 0.452-1.264 0.755-0.761-0.209-1.807-0.313-3.137-0.313-1.325 0-2.368 0.104-3.13 0.313-0.443-0.303-0.867-0.554-1.271-0.755-0.404-0.201-0.726-0.336-0.966-0.407-0.24-0.070-0.464-0.116-0.673-0.137-0.209-0.021-0.34-0.027-0.395-0.020-0.055 0.008-0.098 0.017-0.129 0.027-0.162 0.402-0.273 0.795-0.333 1.181-0.060 0.386-0.073 0.726-0.039 1.021 0.034 0.295 0.070 0.522 0.11 0.681 0.039 0.159 0.082 0.301 0.129 0.426-0.866 0.944-1.299 2.063-1.299 3.357zM1.964 10.658c0-0.751 0.342-1.44 1.025-2.066 0.203-0.188 0.441-0.33 0.712-0.426 0.271-0.097 0.578-0.151 0.919-0.164 0.342-0.013 0.669-0.010 0.982 0.008 0.313 0.018 0.699 0.043 1.158 0.074 0.459 0.031 0.855 0.047 1.189 0.047 0.334 0 0.73-0.016 1.189-0.047 0.459-0.031 0.845-0.056 1.158-0.074 0.313-0.018 0.64-0.021 0.982-0.008 0.342 0.013 0.648 0.068 0.919 0.164 0.271 0.097 0.508 0.239 0.712 0.426 0.683 0.616 1.025 1.304 1.025 2.066 0 0.449-0.056 0.846-0.168 1.193-0.112 0.347-0.256 0.638-0.43 0.872-0.175 0.235-0.417 0.434-0.728 0.599-0.31 0.164-0.613 0.291-0.908 0.38-0.295 0.089-0.673 0.158-1.134 0.207-0.462 0.050-0.874 0.080-1.236 0.090-0.363 0.010-0.823 0.016-1.381 0.016-0.558 0-1.018-0.005-1.381-0.016-0.362-0.010-0.775-0.040-1.236-0.090-0.462-0.050-0.84-0.119-1.134-0.207-0.295-0.089-0.597-0.215-0.908-0.38-0.31-0.164-0.553-0.364-0.728-0.599-0.175-0.235-0.318-0.525-0.43-0.872-0.112-0.347-0.168-0.745-0.168-1.193zM10 10.5c0-0.828 0.448-1.5 1-1.5s1 0.672 1 1.5c0 0.828-0.448 1.5-1 1.5-0.552 0-1-0.672-1-1.5zM4 10.5c0-0.828 0.448-1.5 1-1.5s1 0.672 1 1.5c0 0.828-0.448 1.5-1 1.5-0.552 0-1-0.672-1-1.5z" fill="#ffffff" />
</g>
<g transform="translate(64 0)">
	<path d="M13.313 0h-10.625c-1.478 0-2.688 1.209-2.688 2.688v10.625c0 1.478 1.209 2.688 2.688 2.688h10.625c1.478 0 2.688-1.209 2.688-2.688v-10.625c0-1.478-1.209-2.688-2.688-2.688zM15 12h-6v-3.688c0 0 1.099 0.016 1.688 0.625v1.063h2.413c-0.185-0.592-0.579-1.174-1.143-1.667-0.968-0.847-2.55-1.271-3.958-1.271v4.938h-7v-1.5c0-0.678 0.229-1.352 0.662-1.949 0.384-0.53 0.92-0.997 1.592-1.389 0.788-0.46 1.728-0.792 2.747-0.981v-2.18h2v2c2.297 0 3.463 0.412 4.747 1.161 0.672 0.392 1.207 0.859 1.592 1.389 0.433 0.597 0.662 1.271 0.662 1.949v1.5zM3.119 10c0.185-0.592 0.579-1.174 1.143-1.667 0.493-0.431 1.088-0.769 1.739-0.996v2.663h-2.881z" fill="#ffffff" />
</g>
<g transform="translate(96 0)">
	<path d="M13.344 0h-10.688c-1.461 0-2.656 1.195-2.656 2.656v10.688c0 1.461 1.195 2.656 2.656 2.656h10.688c1.461 0 2.656-1.195 2.656-2.656v-10.688c0-1.461-1.195-2.656-2.656-2.656zM5.122 7h5.756c0.109 0.313 0.169 0.65 0.169 1 0 1.68-1.367 3.047-3.047 3.047-1.68 0-3.047-1.367-3.047-3.047 0-0.35 0.060-0.687 0.169-1zM14 7.001v5.999c0 0.55-0.45 1-1 1h-10c-0.55 0-1-0.45-1-1v-6h1.564c-0.073 0.322-0.111 0.657-0.111 1 0 2.507 2.040 4.547 4.547 4.547 2.507 0 4.547-2.040 4.547-4.547 0-0.343-0.039-0.678-0.111-1l1.564 0.001zM14 3.5c0 0.275-0.225 0.5-0.5 0.5h-1c-0.275 0-0.5-0.225-0.5-0.5v-1c0-0.275 0.225-0.5 0.5-0.5h1c0.275 0 0.5 0.225 0.5 0.5v1z" fill="#ffffff" />
</g>
<g transform="translate(128 0)">
	<path d="M8 0c-4.418 0-8 3.582-8 8s3.582 8 8 8 8-3.582 8-8-3.582-8-8-8zM4 4h8c0.143 0 0.281 0.031 0.409 0.088l-4.409 5.143-4.409-5.143c0.127-0.058 0.266-0.088 0.409-0.088zM3 11v-6c0-0.021 0.001-0.042 0.002-0.063l2.932 3.421-2.9 2.9c-0.023-0.083-0.034-0.17-0.034-0.258zM12 12h-8c-0.088 0-0.175-0.012-0.258-0.034l2.846-2.846 1.413 1.648 1.413-1.648 2.846 2.846c-0.083 0.023-0.17 0.034-0.258 0.034zM13 11c0 0.088-0.012 0.175-0.034 0.258l-2.9-2.9 2.932-3.421c0.001 0.021 0.002 0.042 0.002 0.063v6z" fill="#ffffff" />
</g>
<g transform="translate(160 0)">
	<path d="M8 0l-8 8h5v8l6 0v-8h5z" fill="#ffffff" />
</g>
<g transform="translate(192 0)">
	<path d="M16 8l-8-8v5h-8l-0 6h8v5z" fill="#ffffff" />
</g>
<g transform="translate(224 0)">
	<path d="M0 8l8 8v-5h8l0-6h-8v-5z" fill="#ffffff" />
</g>
<g transform="translate(256 0)">
	<path d="M16 10v6h-16v-6h2v4h12v-4zM3 11h10v2h-10zM3.237 8.835l0.433-1.953 9.763 2.164-0.433 1.953zM4.37 4.821l0.845-1.813 9.063 4.226-0.845 1.813zM15.496 5.648l-1.218 1.587-7.934-6.088 0.88-1.147h0.91z" fill="#ffffff" />
</g>
<g transform="translate(288 0)">
	<path d="M13.334 0h-10.667c-1.467 0-2.667 1.2-2.667 2.667v10.666c0 1.468 1.2 2.667 2.667 2.667h10.667c1.467 0 2.666-1.199 2.666-2.667v-10.666c-0-1.467-1.199-2.667-2.666-2.667zM11.433 12.886c-0.471 0.222-0.899 0.378-1.281 0.468-0.383 0.089-0.796 0.134-1.241 0.134-0.505 0-0.803-0.063-1.19-0.19-0.388-0.128-0.719-0.31-0.992-0.545-0.274-0.236-0.464-0.487-0.57-0.753-0.106-0.266-0.159-0.651-0.159-1.156v-3.872h-1.5v-1.564c0.433-0.141 0.936-0.343 1.245-0.605 0.31-0.264 0.558-0.579 0.745-0.948 0.188-0.368 0.316-0.838 0.387-1.407h1.57v2.554h2.553v1.971h-2.553v2.831c0 0.641-0.008 1.010 0.060 1.191 0.067 0.181 0.236 0.368 0.42 0.477 0.245 0.146 0.524 0.22 0.838 0.22 0.559 0 1.115-0.182 1.668-0.545v1.741z" fill="#ffffff" />
</g>
<g transform="translate(320 0)">
	<path d="M3 1v12h12v-12h-12zM14 12h-10v-10h10v10zM2 14v-10l-1-1v12h12l-1-1zM6.707 10.707l3-3 2.293 2.293v-6h-6l2.293 2.293-3 3z" fill="#ffffff" />
</g>
<g transform="translate(352 0)">
	<path d="M15 4c0.552 0 1-0.448 1-1v-2h-2v-1h-13c-0.55 0-1 0.45-1 1v14c0 0.55 0.45 1 1 1h13v-4h1c0.552 0 1-0.448 1-1v-2h-2v-1h1c0.552 0 1-0.448 1-1v-2h-2v-1h1zM9 4.005c1.102 0 1.995 0.893 1.995 1.995s-0.893 1.995-1.995 1.995c-1.102 0-1.995-0.893-1.995-1.995s0.893-1.995 1.995-1.995zM4 15h-1v-14h1v14zM12 12h-6v-1c0-1.105 0.895-2 2-2v0h2c1.105 0 2 0.895 2 2v1z" fill="#ffffff" />
</g>
</svg>
